<svg width="16" height="16" viewBox="0 0 16 16" fill="none" xmlns="http://www.w3.org/2000/svg">
<path d="M13.4688 10.0187C13.4375 9.90625 13.5063 9.75 13.5719 9.6375C13.5919 9.60402 13.6138 9.57167 13.6375 9.54062C14.1988 8.70651 14.4991 7.72415 14.5 6.71875C14.5094 3.8375 12.0781 1.5 9.07188 1.5C6.45 1.5 4.2625 3.28437 3.75 5.65312C3.67333 6.00421 3.63457 6.36251 3.63438 6.72187C3.63438 9.60625 5.97188 12.0062 8.97813 12.0062C9.45625 12.0062 10.1 11.8625 10.4531 11.7656C10.8063 11.6687 11.1563 11.5406 11.2469 11.5062C11.3398 11.4712 11.4382 11.4532 11.5375 11.4531C11.6458 11.4527 11.7531 11.474 11.8531 11.5156L13.625 12.1437C13.6638 12.1602 13.7049 12.1707 13.7469 12.175C13.8132 12.175 13.8768 12.1487 13.9237 12.1018C13.9705 12.0549 13.9969 11.9913 13.9969 11.925C13.9947 11.8964 13.9895 11.8681 13.9813 11.8406L13.4688 10.0187Z" stroke="#848484" stroke-miterlimit="10" stroke-linecap="round"/>
<path d="M2.07688 7.25C1.66701 7.98633 1.46874 8.82165 1.50398 9.66363C1.53922 10.5056 1.8066 11.3214 2.27657 12.0209C2.34875 12.13 2.38938 12.2144 2.37688 12.2709C2.36438 12.3275 2.00407 14.2044 2.00407 14.2044C1.9954 14.2483 1.99869 14.2937 2.01358 14.336C2.02848 14.3782 2.05444 14.4156 2.08875 14.4444C2.13454 14.4809 2.19147 14.5005 2.25 14.5C2.28128 14.5001 2.31225 14.4937 2.34094 14.4812L4.0975 13.7937C4.2184 13.7461 4.35326 13.7483 4.4725 13.8C5.06438 14.0306 5.71875 14.175 6.37344 14.175C7.25196 14.1759 8.11506 13.9442 8.875 13.5034" stroke="#848484" stroke-miterlimit="10" stroke-linecap="round"/>
</svg>
