<svg xmlns="http://www.w3.org/2000/svg" version="1.1" xmlns:xlink="http://www.w3.org/1999/xlink" xmlns:svgjs="http://svgjs.com/svgjs" width="512" height="512" x="0" y="0" viewBox="0 0 512 512" style="enable-background:new 0 0 512 512" xml:space="preserve" class=""><g><path d="M290.093 318.174a15.943 15.943 0 0 0 4.353-3.363C359.704 296.84 408 234.248 408 160c0-50.021-31.48-145.039-32.821-149.06A16 16 0 0 0 360 0H152a16 16 0 0 0-15.179 10.94C135.48 14.961 104 109.979 104 160c0 74.248 48.296 136.84 113.554 154.81a15.924 15.924 0 0 0 4.353 3.363A33.664 33.664 0 0 1 240 348.08V448c0 17.645-14.355 32-32 32h-32c-8.837 0-16 7.164-16 16s7.163 16 16 16h160c8.837 0 16-7.164 16-16s-7.163-16-16-16h-32c-17.645 0-32-14.355-32-32v-99.92a33.662 33.662 0 0 1 18.093-29.906zM136 160c0-35.67 19.535-101.925 27.681-128h184.641C356.468 58.068 376 124.296 376 160c0 70.58-53.832 128-120 128s-120-57.42-120-128z" fill="#000000" data-original="#000000"></path></g></svg>