<svg xmlns="http://www.w3.org/2000/svg" version="1.1" xmlns:xlink="http://www.w3.org/1999/xlink" xmlns:svgjs="http://svgjs.com/svgjs" width="512" height="512" x="0" y="0" viewBox="0 0 512 512" style="enable-background:new 0 0 512 512" xml:space="preserve" class=""><g><path d="M256 117c-77.195 0-140 62.805-140 140s62.805 140 140 140 140-62.805 140-140-62.805-140-140-140zm0 260c-66.168 0-120-53.832-120-120s53.832-120 120-120 120 53.832 120 120-53.832 120-120 120zm0 0" fill="#000000" data-original="#000000" class=""></path><path d="M502 343.785V10a9.996 9.996 0 0 0-6.766-9.46 10.003 10.003 0 0 0-11.14 3.339c-27.844 35.965-47.551 77.777-57.672 122.023a217.385 217.385 0 0 0-18.395-20.93C367.422 64.368 313.43 42 256 42s-111.418 22.363-152.027 62.973a206.99 206.99 0 0 0-3.973 4.109V10c0-5.523-4.477-10-10-10S80 4.477 80 10v120H60V10c0-5.523-4.477-10-10-10S40 4.477 40 10v120H20V10c0-5.523-4.477-10-10-10S0 4.477 0 10v130c0 15.777 7.535 30.61 20 39.988v163.797C13.926 399.551 10 462.598 10 472c0 22.055 17.945 40 40 40s40-17.945 40-40c0-7.04-2.2-44.148-5.855-85.762a217.644 217.644 0 0 0 19.828 22.793C144.582 449.637 198.57 472 256 472s111.422-22.363 152.027-62.973a216.408 216.408 0 0 0 31.375-39.691C434.832 417.37 432 464.02 432 472c0 22.055 17.945 40 40 40s40-17.945 40-40c0-9.402-3.926-72.45-10-128.215zM462 275h20v20h-20zm-19.922-124.727C448.082 111.91 461.734 75.027 482 42.035V255h-25.855l-14.141-14.137zM40 275h20v20H40zm38.27-125a30.143 30.143 0 0 1-13.278 15.98A9.995 9.995 0 0 0 60 174.633V255H40v-80.363a9.996 9.996 0 0 0-4.992-8.657A30.16 30.16 0 0 1 21.73 150zM50 492c-11.027 0-20-8.973-20-20 0-7.621 10-127.309 10-127.672V315h20v29.328c0 .363 10 120.05 10 127.672 0 11.031-8.973 20-20 20zm206-40c-77.496 0-144.574-45.441-176-111.074V179.988c12.426-9.347 19.945-24.117 19.996-39.836C135.598 92.734 192.273 62 256 62c70.117 0 131.703 37.203 166.074 92.902l-.074 90.09a10.01 10.01 0 0 0 2.93 7.082l17.07 17.07v46.426C417.074 394.563 343.125 452 256 452zm216 40c-11.027 0-20-8.973-20-20 0-7.621 10-127.309 10-127.672V315h20v29.328c0 .363 10 120.05 10 127.672 0 11.031-8.973 20-20 20zm0 0" fill="#000000" data-original="#000000" class=""></path><path d="M257.281 336.992c-2.672.04-5.172 1.117-7.031 3.04s-2.86 4.437-2.813 7.109a9.984 9.984 0 0 0 2.981 6.98 9.957 9.957 0 0 0 7.012 2.871h.16c5.508-.094 9.93-4.644 9.84-10.16a9.95 9.95 0 0 0-2.98-6.973 9.998 9.998 0 0 0-7.169-2.867zM336 257c.012 30.582-17.031 58.059-44.469 71.7a9.954 9.954 0 0 0-5.031 5.769 9.929 9.929 0 0 0 .52 7.633 9.948 9.948 0 0 0 8.96 5.558c1.551 0 3.051-.351 4.442-1.05a100.144 100.144 0 0 0 40.137-36.208C350.66 294.442 356 275.98 356 257c0-5.508-4.488-10-10-10-5.508 0-10 4.492-10 10zm0 0" fill="#000000" data-original="#000000" class=""></path></g></svg>