<svg xmlns="http://www.w3.org/2000/svg" version="1.1" xmlns:xlink="http://www.w3.org/1999/xlink" xmlns:svgjs="http://svgjs.com/svgjs" width="512" height="512" x="0" y="0" viewBox="0 0 32 32" style="enable-background:new 0 0 512 512" xml:space="preserve" class=""><g><path d="M28.822 19.49A90.365 90.365 0 0 0 30 5a.994.994 0 0 0-.086-.401C29.052 2.352 20.946 2 16 2S2.948 2.352 2.086 4.599A.994.994 0 0 0 2 5c0 4.854.4 9.703 1.178 14.49C2.661 19.74 2 20.198 2 21v8a1 1 0 1 0 2 0v-5.118c.217 1.014.446 2.025.698 3.032l.332 1.329a1 1 0 0 0 .773.738c3.383.677 6.79 1.015 10.196 1.015s6.813-.338 10.196-1.015a.998.998 0 0 0 .773-.738l.332-1.329c.252-1.006.482-2.017.698-3.031V29a1 1 0 1 0 2 0v-8c.002-.802-.66-1.261-1.176-1.51zM4.027 6.789C6.931 7.805 12.332 8 16 8s9.069-.195 11.973-1.211a88.523 88.523 0 0 1-1.462 14.365C24.595 21.578 21.072 22 16 22s-8.595-.422-10.51-.846A88.412 88.412 0 0 1 4.027 6.789zM16 4c5.688 0 9.438.531 11.146 1-1.708.469-5.458 1-11.146 1S6.562 5.469 4.854 5C6.562 4.531 10.312 4 16 4zm9.185 23.139a49.672 49.672 0 0 1-18.369 0l-.178-.71a87.054 87.054 0 0 1-.718-3.143C8.919 23.873 13.029 24 16 24s7.081-.127 10.081-.715a88.73 88.73 0 0 1-.718 3.143z" fill="#000000" data-original="#000000"></path></g></svg>