<svg width="16" height="16" viewBox="0 0 16 16" fill="none" xmlns="http://www.w3.org/2000/svg">
<path d="M6.63633 0.5C5.42268 0.5 4.23628 0.85989 3.22717 1.53416C2.21806 2.20843 1.43155 3.16679 0.967103 4.28806C0.502659 5.40932 0.381139 6.64314 0.617911 7.83347C0.854682 9.0238 1.43911 10.1172 2.29729 10.9754C3.15547 11.8335 4.24886 12.418 5.43919 12.6547C6.62952 12.8915 7.86334 12.77 8.9846 12.3056C10.1059 11.8411 11.0642 11.0546 11.7385 10.0455C12.4128 9.03638 12.7727 7.84998 12.7727 6.63633C12.7726 5.0089 12.126 3.44817 10.9753 2.2974C9.82449 1.14664 8.26376 0.500104 6.63633 0.5Z" stroke="#AE0533" stroke-miterlimit="10"/>
<path d="M11.2145 11.2144L15.5 15.4999" stroke="#AE0533" stroke-miterlimit="10" stroke-linecap="round"/>
</svg>
